<svg width="225" height="71" viewBox="0 0 225 71" fill="none" xmlns="http://www.w3.org/2000/svg">
<rect x="33.5039" y="4.92706" width="191.496" height="65.0365" rx="9.85401" fill="#191919"/>
<path d="M33.5039 65.8583C33.5039 63.2279 35.6363 61.0955 38.2667 61.0955H225C225 66.3563 220.735 70.621 215.475 70.621H38.2667C35.6363 70.621 33.5039 68.4887 33.5039 65.8583Z" fill="#FF0000"/>
<circle cx="35.3102" cy="35.3102" r="35.3102" fill="#FF0000"/>
<path d="M99.7518 35.4517C99.7518 36.4223 99.6319 37.2894 99.3919 38.0528C99.152 38.8162 98.8248 39.4924 98.4104 40.0813C98.0068 40.6594 97.5379 41.1556 97.0035 41.57C96.4691 41.9844 95.9074 42.3225 95.3185 42.5843C94.7405 42.846 94.1515 43.0369 93.5517 43.1569C92.9628 43.2768 92.4065 43.3368 91.8831 43.3368H82.2638V39.0834H91.8831C92.4284 39.0398 92.9191 38.9307 93.3554 38.7562C93.8025 38.5708 94.1842 38.3254 94.5005 38.0201C94.8168 37.7147 95.0622 37.3493 95.2367 36.924C95.4112 36.4878 95.4984 35.997 95.4984 35.4517V33.5213C95.4439 32.9869 95.3294 32.4961 95.1549 32.049C94.9804 31.6018 94.7405 31.2201 94.4351 30.9038C94.1406 30.5875 93.7807 30.3422 93.3554 30.1677C92.93 29.9823 92.4393 29.8895 91.8831 29.8895H82.2966C81.7294 29.8895 81.2987 30.0368 81.0042 30.3312C80.7097 30.6257 80.5625 31.0511 80.5625 31.6073V49.0952H76.3091V31.6073C76.3091 30.5167 76.5054 29.5896 76.898 28.8262C77.3016 28.0628 77.7978 27.4466 78.3867 26.9776C78.9866 26.5086 79.6355 26.1706 80.3335 25.9633C81.0315 25.7452 81.6749 25.6362 82.2638 25.6362H91.8831C92.8428 25.6362 93.7044 25.7616 94.4678 26.0124C95.2312 26.2524 95.902 26.5795 96.48 26.994C97.0689 27.3975 97.5651 27.8665 97.9687 28.4009C98.3831 28.9353 98.7212 29.4969 98.9829 30.0859C99.2556 30.6639 99.4519 31.2528 99.5719 31.8527C99.6918 32.4416 99.7518 32.9978 99.7518 33.5213V35.4517ZM127.422 49.0952H123.169V43.3368H108.217V49.0952H103.963V37.3657C103.963 35.6534 104.258 34.0775 104.847 32.6379C105.436 31.1983 106.254 29.9604 107.301 28.9244C108.348 27.8883 109.585 27.0812 111.014 26.5032C112.443 25.9252 114.002 25.6362 115.693 25.6362H125.279C125.574 25.6362 125.852 25.6907 126.114 25.7997C126.375 25.9088 126.604 26.0615 126.801 26.2578C126.997 26.4541 127.15 26.6831 127.259 26.9449C127.368 27.2066 127.422 27.4847 127.422 27.7792V49.0952ZM108.217 39.0834H123.169V29.8895H115.693C115.562 29.8895 115.284 29.9114 114.859 29.955C114.444 29.9877 113.959 30.0804 113.403 30.2331C112.857 30.3858 112.279 30.6203 111.669 30.9365C111.058 31.2528 110.496 31.6891 109.984 32.2453C109.471 32.8015 109.046 33.4995 108.708 34.3392C108.38 35.1681 108.217 36.1769 108.217 37.3657V39.0834ZM156.827 33.5213C156.827 34.4919 156.707 35.359 156.467 36.1224C156.227 36.8858 155.9 37.562 155.486 38.1509C155.082 38.729 154.613 39.2252 154.079 39.6396C153.544 40.0541 152.983 40.3976 152.394 40.6703C151.816 40.932 151.227 41.1229 150.627 41.2428C150.038 41.3628 149.482 41.4228 148.958 41.4228L157.841 49.0952H151.265L142.398 41.4228H139.339V37.1694H148.958C149.493 37.1258 149.978 37.0167 150.414 36.8422C150.861 36.6568 151.243 36.4114 151.559 36.106C151.887 35.8007 152.137 35.4353 152.312 35.01C152.486 34.5737 152.574 34.0775 152.574 33.5213V30.8384C152.574 30.5984 152.541 30.4185 152.476 30.2985C152.421 30.1677 152.345 30.075 152.247 30.0204C152.159 29.955 152.061 29.9168 151.952 29.9059C151.854 29.895 151.761 29.8895 151.674 29.8895H137.638V49.0952H133.384V27.7792C133.384 27.4847 133.439 27.2066 133.548 26.9449C133.657 26.6831 133.804 26.4541 133.99 26.2578C134.186 26.0615 134.415 25.9088 134.677 25.7997C134.938 25.6907 135.222 25.6362 135.527 25.6362H151.674C152.623 25.6362 153.424 25.8107 154.079 26.1597C154.733 26.4977 155.262 26.9285 155.666 27.452C156.08 27.9646 156.374 28.5208 156.549 29.1207C156.734 29.7205 156.827 30.2822 156.827 30.8057V33.5213ZM183.107 29.8895H173.733V49.0952H169.48V29.8895H160.09V25.6362H183.107V29.8895ZM209.796 42.1917C209.796 43.0314 209.687 43.7894 209.469 44.4656C209.262 45.1309 208.984 45.7198 208.635 46.2324C208.286 46.745 207.877 47.1812 207.408 47.5411C206.939 47.901 206.453 48.1955 205.952 48.4245C205.45 48.6535 204.938 48.8226 204.414 48.9317C203.901 49.0407 203.416 49.0952 202.958 49.0952H186.55V44.8419H202.958C203.776 44.8419 204.409 44.6019 204.856 44.122C205.314 43.6422 205.543 42.9987 205.543 42.1917C205.543 41.799 205.483 41.4391 205.363 41.112C205.243 40.7848 205.068 40.5012 204.839 40.2613C204.621 40.0213 204.349 39.8359 204.021 39.7051C203.705 39.5742 203.351 39.5088 202.958 39.5088H193.175C192.488 39.5088 191.747 39.3888 190.95 39.1489C190.154 38.898 189.413 38.4999 188.726 37.9546C188.049 37.4093 187.482 36.695 187.024 35.8116C186.577 34.9282 186.353 33.8485 186.353 32.5725C186.353 31.2964 186.577 30.2222 187.024 29.3497C187.482 28.4663 188.049 27.7519 188.726 27.2066C189.413 26.6504 190.154 26.2524 190.95 26.0124C191.747 25.7616 192.488 25.6362 193.175 25.6362H207.653V29.8895H193.175C192.368 29.8895 191.736 30.1349 191.278 30.6257C190.83 31.1165 190.607 31.7654 190.607 32.5725C190.607 33.3904 190.83 34.0393 191.278 34.5192C191.736 34.9882 192.368 35.2226 193.175 35.2226H202.958H202.991C203.449 35.2336 203.934 35.299 204.447 35.419C204.959 35.528 205.466 35.7025 205.968 35.9425C206.481 36.1824 206.966 36.4878 207.424 36.8586C207.882 37.2185 208.286 37.6547 208.635 38.1673C208.995 38.6799 209.278 39.2688 209.485 39.9341C209.693 40.5994 209.796 41.3519 209.796 42.1917Z" fill="white"/>
<path d="M83.1404 67.4917V64.3071C83.1404 64.237 83.1635 64.1779 83.2097 64.13C83.2559 64.0821 83.3123 64.0582 83.379 64.0582H84.4235C84.4902 64.0582 84.5535 64.0821 84.6134 64.13C84.6732 64.1779 84.7134 64.2352 84.734 64.302L85.491 66.4935L86.248 64.302C86.2685 64.2352 86.3087 64.1779 86.3686 64.13C86.4285 64.0821 86.4918 64.0582 86.5585 64.0582H87.6029C87.6696 64.0582 87.7252 64.0821 87.7697 64.13C87.8159 64.1779 87.839 64.237 87.839 64.3071V67.4917C87.839 67.5618 87.8151 67.6208 87.7672 67.6688C87.721 67.7149 87.6645 67.738 87.5978 67.738H87.1359C87.0692 67.738 87.0119 67.7149 86.964 67.6688C86.9178 67.6208 86.8947 67.5618 86.8947 67.4917V64.9846L85.9888 67.5071C85.9649 67.5704 85.923 67.6251 85.8631 67.6713C85.8032 67.7158 85.7399 67.738 85.6732 67.738H85.3062C85.2395 67.738 85.1762 67.7158 85.1163 67.6713C85.0582 67.6251 85.0163 67.5704 84.9906 67.5071L84.0873 64.9846V67.4917C84.0873 67.5618 84.0634 67.6208 84.0155 67.6688C83.9693 67.7149 83.9128 67.738 83.8461 67.738H83.3842C83.3175 67.738 83.2602 67.7149 83.2122 67.6688C83.1643 67.6208 83.1404 67.5618 83.1404 67.4917ZM89.8493 67.502L90.4934 65.059C90.6679 64.3935 91.2359 64.0599 92.1974 64.0582H93.5805C93.6438 64.0582 93.696 64.0821 93.7371 64.13C93.7798 64.1779 93.8012 64.2335 93.8012 64.2968V67.502C93.8012 67.5687 93.7773 67.6251 93.7294 67.6713C93.6815 67.7158 93.6241 67.738 93.5574 67.738H93.075C93.0048 67.738 92.9467 67.7158 92.9005 67.6713C92.856 67.6251 92.8338 67.567 92.8338 67.4968V66.8501H91.0092L90.8373 67.4968C90.8202 67.567 90.7817 67.6251 90.7218 67.6713C90.6619 67.7158 90.5987 67.738 90.5319 67.738H90.0264C89.9597 67.738 89.9118 67.7192 89.8827 67.6816C89.8536 67.6422 89.8391 67.608 89.8391 67.5789C89.8408 67.5499 89.8442 67.5242 89.8493 67.502ZM91.1991 66.1239H92.8338V64.7844H92.1024C91.9382 64.7844 91.7945 64.8314 91.6713 64.9255C91.5498 65.0179 91.4677 65.1428 91.425 65.3002L91.1991 66.1239ZM96.1118 67.502V64.302C96.1118 64.2318 96.1349 64.1737 96.1811 64.1275C96.2272 64.0813 96.2854 64.0582 96.3555 64.0582H98.8344C98.9046 64.0582 98.9619 64.0813 99.0064 64.1275C99.0526 64.1737 99.0757 64.2318 99.0757 64.302V64.5432C99.0757 64.6133 99.0526 64.6715 99.0064 64.7177C98.9619 64.7622 98.9046 64.7844 98.8344 64.7844H97.0792V67.502C97.0792 67.5687 97.0553 67.6251 97.0074 67.6713C96.9612 67.7158 96.9047 67.738 96.838 67.738H96.3555C96.2888 67.738 96.2315 67.7158 96.1836 67.6713C96.1357 67.6251 96.1118 67.5687 96.1118 67.502ZM100.568 67.502L101.212 65.059C101.386 64.3935 101.954 64.0599 102.916 64.0582H104.299C104.362 64.0582 104.414 64.0821 104.455 64.13C104.498 64.1779 104.519 64.2335 104.519 64.2968V67.502C104.519 67.5687 104.496 67.6251 104.448 67.6713C104.4 67.7158 104.342 67.738 104.276 67.738H103.793C103.723 67.738 103.665 67.7158 103.619 67.6713C103.574 67.6251 103.552 67.567 103.552 67.4968V66.8501H101.728L101.556 67.4968C101.538 67.567 101.5 67.6251 101.44 67.6713C101.38 67.7158 101.317 67.738 101.25 67.738H100.745C100.678 67.738 100.63 67.7192 100.601 67.6816C100.572 67.6422 100.557 67.608 100.557 67.5789C100.559 67.5499 100.562 67.5242 100.568 67.502ZM101.917 66.1239H103.552V64.7844H102.821C102.656 64.7844 102.513 64.8314 102.39 64.9255C102.268 65.0179 102.186 65.1428 102.143 65.3002L101.917 66.1239ZM106.594 66.7347C106.594 66.6337 106.624 66.561 106.684 66.5166C106.744 66.4721 106.802 66.4498 106.858 66.4498H107.161C107.318 66.4498 107.442 66.5448 107.531 66.7347C107.573 66.8253 107.645 66.8981 107.746 66.9528C107.847 67.0075 107.959 67.0349 108.082 67.0349H108.886C109.072 67.0349 109.211 67.005 109.304 66.9451C109.396 66.8852 109.442 66.7834 109.442 66.6397C109.442 66.496 109.396 66.3942 109.304 66.3344C109.211 66.2745 109.072 66.2445 108.886 66.2445H108.223C108.157 66.2445 108.099 66.2214 108.052 66.1753C108.005 66.1274 107.982 66.07 107.982 66.0033V65.7929C107.982 65.7296 108.004 65.674 108.049 65.6261C108.095 65.5765 108.15 65.5517 108.213 65.5517H108.791C108.998 65.5517 109.149 65.5209 109.245 65.4593C109.342 65.3977 109.391 65.2976 109.391 65.1591C109.391 65.0188 109.342 64.9178 109.245 64.8563C109.149 64.7947 108.998 64.7639 108.791 64.7639H108.167C107.89 64.7639 107.698 64.8691 107.592 65.0795C107.515 65.2403 107.4 65.3207 107.246 65.3207H106.94C106.858 65.3207 106.794 65.2908 106.748 65.2309C106.702 65.171 106.679 65.106 106.679 65.0359C106.679 64.7451 106.826 64.5064 107.12 64.3199C107.414 64.1317 107.733 64.0377 108.077 64.0377H108.865C109.861 64.0377 110.359 64.4123 110.359 65.1616C110.359 65.473 110.24 65.7185 110.004 65.8981C110.275 66.0658 110.41 66.313 110.41 66.6397C110.41 67.0349 110.286 67.3206 110.038 67.4968C109.791 67.6713 109.437 67.7586 108.975 67.7586H107.993C107.645 67.7586 107.325 67.6636 107.033 67.4737C106.74 67.2821 106.594 67.0358 106.594 66.7347ZM112.513 67.4968V64.302C112.513 64.2318 112.536 64.1737 112.582 64.1275C112.628 64.0813 112.686 64.0582 112.756 64.0582H113.208C113.275 64.0582 113.331 64.0813 113.377 64.1275C113.425 64.1737 113.449 64.2301 113.449 64.2968V66.8655L114.909 64.302C114.949 64.2352 115.003 64.1779 115.071 64.13C115.139 64.0821 115.203 64.0582 115.261 64.0582H116.018C116.085 64.0582 116.141 64.0821 116.187 64.13C116.233 64.1779 116.257 64.2352 116.257 64.302V67.4968C116.257 67.5635 116.233 67.6208 116.185 67.6688C116.137 67.7149 116.079 67.738 116.013 67.738H115.561C115.494 67.738 115.437 67.7149 115.389 67.6688C115.343 67.6208 115.32 67.5635 115.32 67.4968V65.1154L113.98 67.4968C113.941 67.5635 113.885 67.6208 113.814 67.6688C113.742 67.7149 113.672 67.738 113.606 67.738H112.756C112.69 67.738 112.632 67.7149 112.584 67.6688C112.536 67.6208 112.513 67.5635 112.513 67.4968ZM118.57 67.4968V64.302C118.57 64.2352 118.594 64.1779 118.642 64.13C118.689 64.0821 118.748 64.0582 118.819 64.0582H119.296C119.363 64.0582 119.419 64.0821 119.465 64.13C119.513 64.1779 119.537 64.2352 119.537 64.302V65.4567H121.303V64.302C121.303 64.2352 121.327 64.1779 121.374 64.13C121.422 64.0821 121.48 64.0582 121.546 64.0582H122.024C122.094 64.0582 122.152 64.0821 122.198 64.13C122.246 64.1779 122.27 64.2352 122.27 64.302V67.4968C122.27 67.5635 122.245 67.6208 122.196 67.6688C122.148 67.7149 122.09 67.738 122.024 67.738H121.546C121.48 67.738 121.422 67.7158 121.374 67.6713C121.327 67.6251 121.303 67.5687 121.303 67.502V66.183H119.537V67.502C119.537 67.5687 119.513 67.6251 119.465 67.6713C119.419 67.7158 119.363 67.738 119.296 67.738H118.819C118.752 67.738 118.694 67.7149 118.644 67.6688C118.594 67.6208 118.57 67.5635 118.57 67.4968ZM127.702 67.502L128.346 65.059C128.521 64.3935 129.089 64.0599 130.05 64.0582H131.433C131.497 64.0582 131.549 64.0821 131.59 64.13C131.633 64.1779 131.654 64.2335 131.654 64.2968V67.502C131.654 67.5687 131.63 67.6251 131.582 67.6713C131.534 67.7158 131.477 67.738 131.41 67.738H130.928C130.858 67.738 130.799 67.7158 130.753 67.6713C130.709 67.6251 130.687 67.567 130.687 67.4968V66.8501H128.862L128.69 67.4968C128.673 67.567 128.634 67.6251 128.575 67.6713C128.515 67.7158 128.451 67.738 128.385 67.738H127.879C127.812 67.738 127.765 67.7192 127.735 67.6816C127.706 67.6422 127.692 67.608 127.692 67.5789C127.694 67.5499 127.697 67.5242 127.702 67.502ZM129.052 66.1239H130.687V64.7844H129.955C129.791 64.7844 129.647 64.8314 129.524 64.9255C129.403 65.0179 129.32 65.1428 129.278 65.3002L129.052 66.1239ZM133.965 64.302C133.965 64.2352 133.988 64.1779 134.036 64.13C134.084 64.0821 134.142 64.0582 134.208 64.0582H136.295C136.806 64.0582 137.183 64.2053 137.426 64.4996C137.561 64.6621 137.629 64.8699 137.629 65.1231C137.629 65.3746 137.513 65.5944 137.283 65.7826C137.611 65.9588 137.775 66.2326 137.775 66.6038C137.775 66.975 137.644 67.2573 137.38 67.4506C137.118 67.6422 136.797 67.738 136.415 67.738H134.208C134.142 67.738 134.084 67.7149 134.036 67.6688C133.988 67.6208 133.965 67.5635 133.965 67.4968V64.302ZM134.932 67.0452H136.4C136.532 67.0452 136.632 67.0058 136.703 66.9271C136.773 66.8484 136.808 66.7407 136.808 66.6038C136.808 66.4669 136.773 66.3592 136.703 66.2805C136.632 66.2018 136.532 66.1624 136.4 66.1624H134.932V67.0452ZM134.932 65.4875H136.305C136.413 65.4875 136.499 65.4559 136.564 65.3926C136.629 65.3276 136.662 65.2378 136.662 65.1231C136.662 65.0068 136.629 64.9161 136.564 64.8511C136.499 64.7861 136.413 64.7536 136.305 64.7536H134.932V65.4875ZM139.485 64.5432V64.302C139.485 64.2318 139.508 64.1737 139.555 64.1275C139.601 64.0813 139.659 64.0582 139.729 64.0582H142.986C143.056 64.0582 143.114 64.0813 143.16 64.1275C143.206 64.1737 143.229 64.2318 143.229 64.302V64.5432C143.229 64.6133 143.206 64.6715 143.16 64.7177C143.114 64.7622 143.056 64.7844 142.986 64.7844H141.841V67.502C141.841 67.5687 141.817 67.6251 141.769 67.6713C141.723 67.7158 141.667 67.738 141.6 67.738H141.115C141.048 67.738 140.991 67.7158 140.943 67.6713C140.897 67.6251 140.874 67.5687 140.874 67.502V64.7844H139.729C139.659 64.7844 139.601 64.7622 139.555 64.7177C139.508 64.6715 139.485 64.6133 139.485 64.5432ZM148.545 67.3582C148.196 67.6645 147.683 67.8176 147.005 67.8176C146.329 67.8176 145.816 67.6645 145.465 67.3582C145.115 67.0503 144.939 66.5636 144.939 65.8981C144.939 65.2326 145.115 64.7468 145.465 64.4405C145.816 64.1343 146.329 63.9812 147.005 63.9812C147.683 63.9812 148.196 64.1343 148.545 64.4405C148.896 64.7468 149.071 65.2326 149.071 65.8981C149.071 66.5636 148.896 67.0503 148.545 67.3582ZM147.844 64.982C147.672 64.7767 147.392 64.6741 147.005 64.6741C146.62 64.6741 146.341 64.7767 146.166 64.982C145.993 65.1873 145.907 65.4935 145.907 65.9007C145.907 66.3061 145.993 66.6115 146.166 66.8168C146.341 67.0204 146.62 67.1222 147.005 67.1222C147.392 67.1222 147.672 67.0204 147.844 66.8168C148.017 66.6115 148.103 66.3061 148.103 65.9007C148.103 65.4935 148.017 65.1873 147.844 64.982ZM150.94 66.7347C150.94 66.6337 150.97 66.561 151.03 66.5166C151.09 66.4721 151.148 66.4498 151.204 66.4498H151.507C151.665 66.4498 151.788 66.5448 151.877 66.7347C151.92 66.8253 151.991 66.8981 152.092 66.9528C152.193 67.0075 152.305 67.0349 152.428 67.0349H153.232C153.418 67.0349 153.558 67.005 153.65 66.9451C153.742 66.8852 153.789 66.7834 153.789 66.6397C153.789 66.496 153.742 66.3942 153.65 66.3344C153.558 66.2745 153.418 66.2445 153.232 66.2445H152.57C152.503 66.2445 152.446 66.2214 152.398 66.1753C152.351 66.1274 152.328 66.07 152.328 66.0033V65.7929C152.328 65.7296 152.351 65.674 152.395 65.6261C152.441 65.5765 152.496 65.5517 152.559 65.5517H153.137C153.344 65.5517 153.495 65.5209 153.591 65.4593C153.688 65.3977 153.737 65.2976 153.737 65.1591C153.737 65.0188 153.688 64.9178 153.591 64.8563C153.495 64.7947 153.344 64.7639 153.137 64.7639H152.513C152.236 64.7639 152.044 64.8691 151.938 65.0795C151.861 65.2403 151.746 65.3207 151.592 65.3207H151.287C151.204 65.3207 151.14 65.2908 151.094 65.2309C151.048 65.171 151.025 65.106 151.025 65.0359C151.025 64.7451 151.172 64.5064 151.466 64.3199C151.76 64.1317 152.079 64.0377 152.423 64.0377H153.211C154.207 64.0377 154.705 64.4123 154.705 65.1616C154.705 65.473 154.587 65.7185 154.351 65.8981C154.621 66.0658 154.756 66.313 154.756 66.6397C154.756 67.0349 154.632 67.3206 154.384 67.4968C154.138 67.6713 153.783 67.7586 153.321 67.7586H152.339C151.991 67.7586 151.671 67.6636 151.379 67.4737C151.086 67.2821 150.94 67.0358 150.94 66.7347ZM156.556 67.502L157.2 65.059C157.374 64.3935 157.942 64.0599 158.904 64.0582H160.287C160.35 64.0582 160.403 64.0821 160.444 64.13C160.486 64.1779 160.508 64.2335 160.508 64.2968V67.502C160.508 67.5687 160.484 67.6251 160.436 67.6713C160.388 67.7158 160.331 67.738 160.264 67.738H159.782C159.711 67.738 159.653 67.7158 159.607 67.6713C159.563 67.6251 159.54 67.567 159.54 67.4968V66.8501H157.716L157.544 67.4968C157.527 67.567 157.488 67.6251 157.428 67.6713C157.368 67.7158 157.305 67.738 157.238 67.738H156.733C156.666 67.738 156.618 67.7192 156.589 67.6816C156.56 67.6422 156.546 67.608 156.546 67.5789C156.547 67.5499 156.551 67.5242 156.556 67.502ZM157.906 66.1239H159.54V64.7844H158.809C158.645 64.7844 158.501 64.8314 158.378 64.9255C158.256 65.0179 158.174 65.1428 158.131 65.3002L157.906 66.1239ZM162.818 67.4968V64.302C162.818 64.2352 162.841 64.1779 162.888 64.13C162.934 64.0821 162.99 64.0582 163.057 64.0582H166.388C166.455 64.0582 166.511 64.0821 166.557 64.13C166.605 64.1779 166.629 64.2352 166.629 64.302V67.4968C166.629 67.5635 166.604 67.6208 166.555 67.6688C166.507 67.7149 166.449 67.738 166.383 67.738H165.905C165.839 67.738 165.781 67.7149 165.733 67.6688C165.686 67.6208 165.662 67.5635 165.662 67.4968V64.7844H163.786V67.4968C163.786 67.5635 163.762 67.6208 163.714 67.6688C163.668 67.7149 163.611 67.738 163.545 67.738H163.062C162.995 67.738 162.938 67.7149 162.89 67.6688C162.842 67.6208 162.818 67.5635 162.818 67.4968ZM168.786 65.1616V64.302C168.786 64.2352 168.81 64.1779 168.857 64.13C168.907 64.0821 168.965 64.0582 169.032 64.0582H169.512C169.577 64.0582 169.633 64.0821 169.681 64.13C169.729 64.1779 169.753 64.2352 169.753 64.302V65.1616C169.753 65.5756 169.959 65.7826 170.371 65.7826H171.365V64.302C171.365 64.2352 171.389 64.1779 171.436 64.13C171.484 64.0821 171.542 64.0582 171.608 64.0582H172.086C172.156 64.0582 172.214 64.0821 172.26 64.13C172.308 64.1779 172.332 64.2352 172.332 64.302V67.4968C172.332 67.5635 172.307 67.6208 172.258 67.6688C172.21 67.7149 172.152 67.738 172.086 67.738H171.608C171.542 67.738 171.484 67.7158 171.436 67.6713C171.389 67.6251 171.365 67.5687 171.365 67.502V66.5089H170.371C169.886 66.5089 169.5 66.3977 169.214 66.1753C168.928 65.9529 168.786 65.615 168.786 65.1616ZM174.342 67.502L174.986 65.059C175.161 64.3935 175.729 64.0599 176.69 64.0582H178.074C178.137 64.0582 178.189 64.0821 178.23 64.13C178.273 64.1779 178.294 64.2335 178.294 64.2968V67.502C178.294 67.5687 178.27 67.6251 178.222 67.6713C178.174 67.7158 178.117 67.738 178.05 67.738H177.568C177.498 67.738 177.44 67.7158 177.394 67.6713C177.349 67.6251 177.327 67.567 177.327 67.4968V66.8501H175.502L175.33 67.4968C175.313 67.567 175.275 67.6251 175.215 67.6713C175.155 67.7158 175.092 67.738 175.025 67.738H174.519C174.453 67.738 174.405 67.7192 174.376 67.6816C174.347 67.6422 174.332 67.608 174.332 67.5789C174.334 67.5499 174.337 67.5242 174.342 67.502ZM175.692 66.1239H177.327V64.7844H176.595C176.431 64.7844 176.287 64.8314 176.164 64.9255C176.043 65.0179 175.961 65.1428 175.918 65.3002L175.692 66.1239ZM180.869 67.3044C180.553 67.0016 180.394 66.5337 180.394 65.9007C180.394 65.266 180.553 64.7972 180.869 64.4944C181.187 64.1899 181.664 64.0377 182.298 64.0377H182.871C183.259 64.0377 183.602 64.1386 183.9 64.3405C184.199 64.5423 184.349 64.8186 184.349 65.1693C184.349 65.2703 184.319 65.343 184.259 65.3874C184.199 65.4302 184.141 65.4516 184.084 65.4516H183.779C183.622 65.4516 183.499 65.3575 183.412 65.1693C183.286 64.899 183.075 64.7639 182.781 64.7639H182.324C181.949 64.7639 181.695 64.8443 181.562 65.0051C181.429 65.1659 181.362 65.4636 181.362 65.8981C181.362 66.3326 181.429 66.6312 181.562 66.7937C181.695 66.9545 181.949 67.0349 182.324 67.0349H182.835C183.129 67.0349 183.339 66.8998 183.463 66.6295C183.551 66.4396 183.674 66.3446 183.833 66.3446H184.138C184.219 66.3446 184.282 66.3746 184.328 66.4344C184.376 66.4943 184.4 66.5593 184.4 66.6295C184.4 66.9802 184.251 67.2565 183.954 67.4583C183.656 67.6585 183.313 67.7586 182.925 67.7586H182.298C181.664 67.7586 181.187 67.6072 180.869 67.3044ZM186.11 64.5432V64.302C186.11 64.2318 186.133 64.1737 186.179 64.1275C186.226 64.0813 186.284 64.0582 186.354 64.0582H189.61C189.681 64.0582 189.739 64.0813 189.785 64.1275C189.831 64.1737 189.854 64.2318 189.854 64.302V64.5432C189.854 64.6133 189.831 64.6715 189.785 64.7177C189.739 64.7622 189.681 64.7844 189.61 64.7844H188.466V67.502C188.466 67.5687 188.442 67.6251 188.394 67.6713C188.348 67.7158 188.291 67.738 188.225 67.738H187.74C187.673 67.738 187.616 67.7158 187.568 67.6713C187.522 67.6251 187.498 67.5687 187.498 67.502V64.7844H186.354C186.284 64.7844 186.226 64.7622 186.179 64.7177C186.133 64.6715 186.11 64.6133 186.11 64.5432ZM191.852 67.4968V64.302C191.852 64.2318 191.875 64.1737 191.921 64.1275C191.967 64.0813 192.025 64.0582 192.095 64.0582H192.547C192.614 64.0582 192.67 64.0813 192.716 64.1275C192.764 64.1737 192.788 64.2301 192.788 64.2968V66.8655L194.248 64.302C194.288 64.2352 194.342 64.1779 194.41 64.13C194.479 64.0821 194.542 64.0582 194.6 64.0582H195.357C195.424 64.0582 195.48 64.0821 195.526 64.13C195.573 64.1779 195.596 64.2352 195.596 64.302V67.4968C195.596 67.5635 195.572 67.6208 195.524 67.6688C195.476 67.7149 195.419 67.738 195.352 67.738H194.9C194.834 67.738 194.776 67.7149 194.728 67.6688C194.682 67.6208 194.659 67.5635 194.659 67.4968V65.1154L193.32 67.4968C193.28 67.5635 193.225 67.6208 193.153 67.6688C193.081 67.7149 193.012 67.738 192.945 67.738H192.095C192.029 67.738 191.971 67.7149 191.924 67.6688C191.876 67.6208 191.852 67.5635 191.852 67.4968ZM197.909 67.4968V64.302C197.909 64.2352 197.933 64.1779 197.981 64.13C198.029 64.0821 198.088 64.0582 198.158 64.0582H198.635C198.702 64.0582 198.758 64.0821 198.804 64.13C198.852 64.1779 198.876 64.2352 198.876 64.302V65.4567H200.642V64.302C200.642 64.2352 200.666 64.1779 200.714 64.13C200.762 64.0821 200.819 64.0582 200.886 64.0582H201.363C201.433 64.0582 201.491 64.0821 201.537 64.13C201.585 64.1779 201.609 64.2352 201.609 64.302V67.4968C201.609 67.5635 201.584 67.6208 201.535 67.6688C201.487 67.7149 201.43 67.738 201.363 67.738H200.886C200.819 67.738 200.762 67.7158 200.714 67.6713C200.666 67.6251 200.642 67.5687 200.642 67.502V66.183H198.876V67.502C198.876 67.5687 198.852 67.6251 198.804 67.6713C198.758 67.7158 198.702 67.738 198.635 67.738H198.158C198.091 67.738 198.033 67.7149 197.983 67.6688C197.934 67.6208 197.909 67.5635 197.909 67.4968Z" fill="white"/>
<path d="M52.8839 53.6291H46.3788V44.8221H23.5105V53.6291H17.0053V35.6898C17.0053 33.071 17.4557 30.6608 18.3564 28.459C19.2571 26.2573 20.5081 24.3641 22.1094 22.7795C23.7107 21.1949 25.6039 19.9606 27.7889 19.0765C29.974 18.1925 32.3592 17.7505 34.9446 17.7505H49.6063C50.0567 17.7505 50.482 17.8339 50.8823 18.0007C51.2827 18.1675 51.6329 18.401 51.9332 18.7012C52.2334 19.0015 52.4669 19.3518 52.6337 19.7521C52.8005 20.1524 52.8839 20.5777 52.8839 21.0281V53.6291ZM23.5105 38.3169H46.3788V24.2557H34.9446C34.7445 24.2557 34.3191 24.289 33.6686 24.3558C33.0348 24.4058 32.2925 24.5476 31.4418 24.7811C30.6079 25.0146 29.7238 25.3732 28.7897 25.8569C27.8557 26.3407 26.9966 27.0079 26.2127 27.8585C25.4287 28.7092 24.7782 29.7767 24.2611 31.0611C23.7607 32.3288 23.5105 33.8717 23.5105 35.6898V38.3169Z" fill="white"/>
</svg>
